<?xml version="1.0" encoding="utf-8"?>
<!-- Generator: Adobe Illustrator 21.0.0, SVG Export Plug-In . SVG Version: 6.00 Build 0)  -->
<svg version="1.1" id="Capa_1" xmlns="http://www.w3.org/2000/svg" xmlns:xlink="http://www.w3.org/1999/xlink" x="0px" y="0px"
	 viewBox="0 0 50 50" style="enable-background:new 0 0 50 50;" xml:space="preserve">
<style type="text/css">
	.st0{fill:#FFFFFF;}
</style>
<g>
	<path class="st0" d="M25,4.9c11.1,0,20.1,9,20.1,20.1s-9,20.1-20.1,20.1S4.9,36.1,4.9,25S13.9,4.9,25,4.9 M25,2C12.3,2,2,12.3,2,25
		s10.3,23,23,23s23-10.3,23-23S37.7,2,25,2L25,2z M37.8,32.7l-0.1-0.4c-0.3-0.9-1.3-1.8-2.2-2.1l-3.4-0.9c-0.9-0.2-2.2,0.1-2.9,0.8
		l-1.2,1.2c-4.5-1.2-8-4.7-9.2-9.2l1.2-1.2c0.7-0.7,1-2,0.8-2.9l-0.9-3.4c-0.2-0.9-1.2-1.9-2.1-2.2l-0.4-0.1c-0.9-0.3-2.2,0-2.9,0.7
		l-1.8,1.8C12.3,15,12.1,16,12.1,16c-0.1,5.8,2.2,11.5,6.4,15.6c4.1,4.1,9.7,6.4,15.6,6.4c0,0,1-0.2,1.3-0.5l1.8-1.8
		C37.8,34.9,38.1,33.6,37.8,32.7z"/>
</g>
</svg>
