<?xml version="1.0" encoding="utf-8"?>
<!-- Generator: Adobe Illustrator 21.0.0, SVG Export Plug-In . SVG Version: 6.00 Build 0)  -->
<svg version="1.1" id="Слой_1" xmlns="http://www.w3.org/2000/svg" xmlns:xlink="http://www.w3.org/1999/xlink" x="0px" y="0px"
	 viewBox="0 0 200 200" style="enable-background:new 0 0 200 200;" xml:space="preserve">
<style type="text/css">
	.st0{fill:#E25050;}
	.st1{fill:#1B242F;}
	.st2{fill:#FFFFFF;}
</style>
<g id="XMLID_8_">
	<path id="XMLID_9_" class="st0" d="M100,13.6c1.9,0,3.5-1.5,3.5-3.5c0-1.9-1.5-3.5-3.5-3.5c-1.9,0-3.5,1.5-3.5,3.5
		C96.5,12,98.1,13.6,100,13.6z"/>
	<path id="XMLID_10_" class="st0" d="M116.6,2.3c-0.5,0-0.9,0.2-1.1,0.6V2.4c0-0.8-0.7-1.4-1.4-1.4c-0.8,0-1.4,0.7-1.4,1.4v2.1H87.5
		V2.4C87.5,1.7,86.8,1,86,1c-0.8,0-1.4,0.7-1.4,1.4v0.5c-0.3-0.3-0.7-0.6-1.1-0.6C82.6,2.3,82,3,82,3.7v3.6c0,0.8,0.7,1.4,1.4,1.4
		c0.5,0,0.9-0.2,1.1-0.6v0.5c0,0.8,0.7,1.4,1.4,1.4c0.8,0,1.4-0.7,1.4-1.4V6.5h0.9c0,0.2,2.9,5.8,2.9,5.8c0.1,0.2,0.2,0.3,0.3,0.4
		l4.2,3.9v10.3l-3.3,3.3c-0.3,0.3-0.5,0.8-0.5,1.2v5.9c0,0.9,0.8,1.7,1.7,1.7c1,0,1.7-0.8,1.7-1.7v-5.1l2.4-2.4h4.4l2.5,2.4v5.1
		c0,0.9,0.8,1.7,1.7,1.7c0.9,0,1.7-0.8,1.7-1.7v-5.9c0-0.5-0.2-0.9-0.5-1.2l-3.4-3.3V16.7l4.2-3.9c0.2-0.2,0.2-0.2,0.3-0.4
		c0,0,2.9-5.7,2.9-5.8h0.9v2.1c0,0.8,0.7,1.4,1.4,1.4c0.8,0,1.4-0.7,1.4-1.4V8.2c0.2,0.4,0.7,0.6,1.1,0.6c0.8,0,1.4-0.7,1.4-1.4V3.7
		C118.1,3,117.4,2.3,116.6,2.3z M106.2,10.8l-3.7,3.5h-4.9l-3.7-3.5l-2.2-4.3h16.7L106.2,10.8z"/>
</g>
<g>
	<path class="st0" d="M153.1,20.9c-0.2-0.2-0.3-0.4-0.5-0.6c-0.1,6.2-5.1,11.3-11.4,11.3c-6.3,0-11.4-5.1-11.4-11.4
		S135,8.8,141.3,8.8c5.4,0,9.9,3.8,11.1,8.8l1-7.7V9.8c-2.9-3.4-7.3-5.6-12.2-5.6c-3.8,0-7.3,1.3-10,3.6V8v0.2v3.3v0.2
		c0,2.2-1.2,4.2-2.9,5.3v12.7v0.2c2.9,4,7.6,6.6,13,6.6c5.6,0,10.5-2.9,13.3-7.2v-0.2v-6.8C154.1,21.8,153.5,21.4,153.1,20.9z"/>
	<path class="st0" d="M141.3,10.7c-5.2,0-9.5,4.3-9.5,9.5s4.3,9.5,9.5,9.5c5.2,0,9.5-4.2,9.5-9.5S146.5,10.7,141.3,10.7z"/>
	<path class="st0" d="M159.3,2.5c0-0.9-0.7-1.5-1.5-1.5c-0.8,0-1.4,0.5-1.5,1.3l-2.2,16.2c-0.1,0.5,0.1,0.9,0.4,1.2
		c0.3,0.3,0.7,0.5,1.1,0.5h0.9v17.4c0,0.8,0.6,1.4,1.4,1.4s1.4-0.6,1.4-1.4V2.5z"/>
	<path class="st0" d="M129.3,2.8c0-0.5-0.5-0.9-0.9-0.9c-0.5,0-0.9,0.5-0.9,0.9v5.4h-1.6V2.8c0-0.5-0.5-0.9-0.9-0.9
		c-0.5,0-1,0.4-1,0.9v5.4h-1.4V2.8c0-0.5-0.5-0.9-0.9-0.9c-0.5,0-1,0.4-1,0.9v8.8c0,1.9,1.2,3.5,2.9,4.1v21.9c0,0.8,0.6,1.4,1.4,1.4
		c0.8,0,1.4-0.6,1.4-1.4V15.7c1.7-0.6,2.9-2.2,2.9-4.1V2.8H129.3z"/>
</g>
<g>
	<g>
		<path class="st0" d="M53.4,4.1L51,1.7L51.7,1l2.4,2.4L53.4,4.1z M44.2,8.8l2.4,2.4l0.7-0.7l-2.4-2.4L44.2,8.8z M69,1.7L68.2,1
			l-2.4,2.4l0.7,0.7L69,1.7z M75,8.1l-2.4,2.4l0.7,0.7l2.4-2.4L75,8.1z M74.1,7.2l-0.9,0.9l-1.2-1.2c0.2-0.5,0.1-1.1-0.3-1.5
			c-0.4-0.4-1-0.5-1.5-0.3l-1.4-1.5l1-1l-0.7-0.7l-2.4,2.4L67.4,5l1-1l1.4,1.4l-4.9,5H55l-4.9-4.9L51.5,4l0.9,1l0.7-0.7l-2.4-2.4
			l-0.7,0.7l0.9,1l-1.4,1.4c-0.5-0.2-1.1-0.1-1.5,0.3c-0.3,0.3-0.4,0.7-0.4,1.2c0,0.1,0.1,0.3,0.1,0.4l-1.2,1.2l-0.9-0.9l-0.7,0.7
			l2.4,2.4l0.7-0.7l-1.1-1.1l1.1-1.1l7.6,7.8v22c0,1,0.8,1.8,1.8,1.8s1.8-0.8,1.8-1.8V22.5h1v14.7c0,1,0.8,1.8,1.8,1.8
			s1.8-0.8,1.8-1.8v-22l7.7-7.8l1.1,1.1l-1.1,1.1l0.7,0.7l2.4-2.4L74.1,7.2z M60,9.4c1.8,0,3.3-1.5,3.3-3.3S61.8,2.8,60,2.8
			c-1.8,0-3.3,1.5-3.3,3.3S58.2,9.4,60,9.4z"/>
	</g>
</g>
<path class="st1" d="M20,56.2c-2.1,0-3.8,1.7-3.8,3.8c0,2.1,1.7,3.8,3.8,3.8c2.1,0,3.8-1.7,3.8-3.8C23.8,57.9,22.1,56.2,20,56.2z
	 M20,56.2c-2.1,0-3.8,1.7-3.8,3.8c0,2.1,1.7,3.8,3.8,3.8c2.1,0,3.8-1.7,3.8-3.8C23.8,57.9,22.1,56.2,20,56.2z M26.3,50H13.7
	c-2,0-3.6,1.7-3.6,3.6v12.6c0,2,1.7,3.6,3.6,3.6h12.6c2,0,3.6-1.7,3.6-3.6V53.7C30,51.7,28.3,50,26.3,50z M20,66.5
	c-3.6,0-6.5-3-6.5-6.5c0-3.6,3-6.5,6.5-6.5s6.5,3,6.5,6.5S23.6,66.5,20,66.5z M26.8,54.8c-0.8,0-1.5-0.7-1.5-1.5
	c0-0.8,0.7-1.5,1.5-1.5c0.8,0,1.5,0.7,1.5,1.5S27.6,54.8,26.8,54.8z M20,56.2c-2.1,0-3.8,1.7-3.8,3.8c0,2.1,1.7,3.8,3.8,3.8
	c2.1,0,3.8-1.7,3.8-3.8C23.8,57.9,22.1,56.2,20,56.2z M26.3,50H13.7c-2,0-3.6,1.7-3.6,3.6v12.6c0,2,1.7,3.6,3.6,3.6h12.6
	c2,0,3.6-1.7,3.6-3.6V53.7C30,51.7,28.3,50,26.3,50z M20,66.5c-3.6,0-6.5-3-6.5-6.5c0-3.6,3-6.5,6.5-6.5s6.5,3,6.5,6.5
	S23.6,66.5,20,66.5z M26.8,54.8c-0.8,0-1.5-0.7-1.5-1.5c0-0.8,0.7-1.5,1.5-1.5c0.8,0,1.5,0.7,1.5,1.5S27.6,54.8,26.8,54.8z M20,56.2
	c-2.1,0-3.8,1.7-3.8,3.8c0,2.1,1.7,3.8,3.8,3.8c2.1,0,3.8-1.7,3.8-3.8C23.8,57.9,22.1,56.2,20,56.2z M1,41v38h38V41H1z M32.7,66.3
	c0,3.6-2.9,6.4-6.4,6.4H13.7c-3.6,0-6.4-2.9-6.4-6.4V53.7c0-3.6,2.9-6.4,6.4-6.4h12.6c3.6,0,6.4,2.9,6.4,6.4L32.7,66.3L32.7,66.3z
	 M26.3,50H13.7c-2,0-3.6,1.7-3.6,3.6v12.6c0,2,1.7,3.6,3.6,3.6h12.6c2,0,3.6-1.7,3.6-3.6V53.7C30,51.7,28.3,50,26.3,50z M20,66.5
	c-3.6,0-6.5-3-6.5-6.5c0-3.6,3-6.5,6.5-6.5s6.5,3,6.5,6.5S23.6,66.5,20,66.5z M26.8,54.8c-0.8,0-1.5-0.7-1.5-1.5
	c0-0.8,0.7-1.5,1.5-1.5c0.8,0,1.5,0.7,1.5,1.5S27.6,54.8,26.8,54.8z M20,56.2c-2.1,0-3.8,1.7-3.8,3.8c0,2.1,1.7,3.8,3.8,3.8
	c2.1,0,3.8-1.7,3.8-3.8C23.8,57.9,22.1,56.2,20,56.2z M20,56.2c-2.1,0-3.8,1.7-3.8,3.8c0,2.1,1.7,3.8,3.8,3.8c2.1,0,3.8-1.7,3.8-3.8
	C23.8,57.9,22.1,56.2,20,56.2z M20,56.2c-2.1,0-3.8,1.7-3.8,3.8c0,2.1,1.7,3.8,3.8,3.8c2.1,0,3.8-1.7,3.8-3.8
	C23.8,57.9,22.1,56.2,20,56.2z M26.3,50H13.7c-2,0-3.6,1.7-3.6,3.6v12.6c0,2,1.7,3.6,3.6,3.6h12.6c2,0,3.6-1.7,3.6-3.6V53.7
	C30,51.7,28.3,50,26.3,50z M20,66.5c-3.6,0-6.5-3-6.5-6.5c0-3.6,3-6.5,6.5-6.5s6.5,3,6.5,6.5S23.6,66.5,20,66.5z M26.8,54.8
	c-0.8,0-1.5-0.7-1.5-1.5c0-0.8,0.7-1.5,1.5-1.5c0.8,0,1.5,0.7,1.5,1.5S27.6,54.8,26.8,54.8z M20,56.2c-2.1,0-3.8,1.7-3.8,3.8
	c0,2.1,1.7,3.8,3.8,3.8c2.1,0,3.8-1.7,3.8-3.8C23.8,57.9,22.1,56.2,20,56.2z M20,56.2c-2.1,0-3.8,1.7-3.8,3.8c0,2.1,1.7,3.8,3.8,3.8
	c2.1,0,3.8-1.7,3.8-3.8C23.8,57.9,22.1,56.2,20,56.2z M20,56.2c-2.1,0-3.8,1.7-3.8,3.8c0,2.1,1.7,3.8,3.8,3.8c2.1,0,3.8-1.7,3.8-3.8
	C23.8,57.9,22.1,56.2,20,56.2z M26.3,50H13.7c-2,0-3.6,1.7-3.6,3.6v12.6c0,2,1.7,3.6,3.6,3.6h12.6c2,0,3.6-1.7,3.6-3.6V53.7
	C30,51.7,28.3,50,26.3,50z M20,66.5c-3.6,0-6.5-3-6.5-6.5c0-3.6,3-6.5,6.5-6.5s6.5,3,6.5,6.5S23.6,66.5,20,66.5z M26.8,54.8
	c-0.8,0-1.5-0.7-1.5-1.5c0-0.8,0.7-1.5,1.5-1.5c0.8,0,1.5,0.7,1.5,1.5S27.6,54.8,26.8,54.8z M20,56.2c-2.1,0-3.8,1.7-3.8,3.8
	c0,2.1,1.7,3.8,3.8,3.8c2.1,0,3.8-1.7,3.8-3.8C23.8,57.9,22.1,56.2,20,56.2z"/>
<g>
	<path class="st2" d="M36.2,99.3v-2.1c0-1.1-1-2.1-2.1-2.1c-0.3,0-0.5,0-0.7,0.2v-0.8c0-1.1-1-2.1-2.1-2.1c-1.1,0-2.1,1-2.1,2.1v4.9
		H10.9v-4.9c0-1.1-1-2.1-2.1-2.1s-2.1,1-2.1,2.1v0.8C6.3,95,6.2,95,5.9,95c-1.1,0-2.1,1-2.1,2.1v2.1H1v1.4h2.8v2.1
		c0,1.1,1,2.1,2.1,2.1c0.3,0,0.5,0,0.7-0.2v0.8c0,1.1,1,2.1,2.1,2.1s2.1-1,2.1-2.1v-4.9h18.2v4.9c0,1.1,1,2.1,2.1,2.1
		c1.1,0,2.1-1,2.1-2.1v-0.8c0.3,0.2,0.5,0.2,0.7,0.2c1.1,0,2.1-1,2.1-2.1v-2.1H39v-1.4C39,99.3,36.2,99.3,36.2,99.3z M6.6,102.8
		c0,0.5-0.3,0.7-0.7,0.7s-0.7-0.3-0.7-0.7v-5.6c0-0.5,0.3-0.7,0.7-0.7s0.7,0.3,0.7,0.7V102.8z M9.4,105.6c0,0.5-0.3,0.7-0.7,0.7
		c-0.5,0-0.7-0.3-0.7-0.7V94.3c0-0.5,0.3-0.7,0.7-0.7c0.5,0,0.7,0.3,0.7,0.7V105.6z M31.9,105.6c0,0.5-0.3,0.7-0.7,0.7
		c-0.5,0-0.7-0.3-0.7-0.7V94.3c0-0.5,0.3-0.7,0.7-0.7c0.5,0,0.7,0.3,0.7,0.7V105.6z M34.7,102.8c0,0.5-0.3,0.7-0.7,0.7
		c-0.5,0-0.7-0.3-0.7-0.7v-5.6c0-0.5,0.3-0.7,0.7-0.7c0.5,0,0.7,0.3,0.7,0.7V102.8z"/>
</g>
<g>
	<g id="_x35_1_20_">
		<path class="st0" d="M30.1,3.8c-1.2-1.4-8.2-4.9-12.1-1c-3.8,4,0.2,6.8,1.7,7.4c1.4,0.7,5.6,1.7,7.1-0.9c0.4,1.1,0.2,9.6-2.3,11.8
			c-1.2-1.1-3-1.9-4.9-1.9c-1.6,0-3,0.5-4.2,1.3c-1.5-2.4-4.3-4-7.6-4c-1.6,0-3,0.4-4.3,1.1v0.8l0,0V39c0,0,6,0.3,6.5-6.6l0,0
			c1.4,2.1,6.2,3.7,9,3.6c4.5-0.2,10.6-0.4,15.6-5.2c0.5-0.5,0.8-1,1.1-1.6l0,0C38.3,24.3,31.3,5.3,30.1,3.8z"/>
	</g>
</g>
<g>
	<path class="st2" d="M72.6,85.7H47.4c-3.6,0-6.4,2.8-6.4,6.4v15.8c0,3.6,2.8,6.4,6.4,6.4h25.2c3.6,0,6.4-2.8,6.4-6.4V92.1
		C79,88.5,76.2,85.7,72.6,85.7z M47.6,88.3h25.2c2.1,0,3.8,1.7,4,3.7l-14.4,8.4c-1.2,0.7-3.6,0.7-4.9,0l-13.9-8.1
		C43.7,90.2,45.5,88.3,47.6,88.3L47.6,88.3z M43.6,108.1V95.1l7.7,4.4l-7.6,9.3C43.7,108.6,43.6,108.4,43.6,108.1z M72.8,112.2H47.6
		c-1,0-2-0.5-2.7-1.1l8.4-10.3l3,1.7c1.2,0.7,2.4,0.9,3.8,0.9s2.8-0.2,3.8-0.9l2.9-1.7l8.5,10.4C74.7,111.8,73.8,112.2,72.8,112.2z
		 M76.9,108.1c0,0.3-0.1,0.7-0.2,1l-7.8-9.6l8-4.6V108.1L76.9,108.1z"/>
</g>
<path class="st1" d="M41,41v38h20.2V64.3h-4.9v-6h4.9v-5c0-3.6,3-6.6,6.6-6.6H73v5.4h-3.7c-1.1,0-2.1,0.9-2.1,2.1v4.2h5.8l-0.8,6
	h-4.9V79H79V41H41z"/>
<g>
	<path class="st2" d="M111.4,118.9c-1.6,0-3.5-0.4-5.6-1.2c-4.6-1.7-9.5-5.1-14.1-9.6c-4.4-4.5-7.9-9.5-9.5-14
		c-1.6-4.2-1.6-7.6,0-9.2c0.2-0.2,0.5-0.5,0.7-0.7c1.4-1.5,3-3.2,5.2-3.1c1.4,0.1,2.9,1,4.4,2.8c4.3,5.4,2.3,7.3,0.2,9.5l-0.4,0.4
		c-0.4,0.4-1.1,2,5.5,8.6c2.1,2.1,3.9,3.6,5.4,4.6c0.9,0.6,2.5,1.5,3.2,0.8l0.4-0.4c2.2-2.3,4.2-4.2,9.5,0.2
		c1.8,1.4,2.7,2.9,2.8,4.4c0.1,2.1-1.6,3.8-3.1,5.2c-0.2,0.2-0.5,0.5-0.7,0.7C114.2,118.5,113,118.9,111.4,118.9z M87.9,82.3
		c-1.5,0-2.9,1.4-4.1,2.7c-0.2,0.2-0.5,0.5-0.8,0.8c-1.1,1.1-1.1,4.2,0.3,7.8c1.7,4.4,5,9.2,9.3,13.6c4.3,4.3,9.2,7.6,13.6,9.3
		c3.6,1.4,6.7,1.4,7.8,0.3c0.2-0.2,0.5-0.5,0.8-0.7c1.3-1.2,2.8-2.7,2.7-4.2c-0.1-1.1-0.8-2.2-2.3-3.4c-4.5-3.6-5.8-2.3-7.8-0.2
		l-0.4,0.4c-1,1-2.6,0.8-4.8-0.7c-1.5-1-3.4-2.6-5.6-4.8c-5.4-5.4-7.1-8.7-5.5-10.4l0.4-0.4c2.1-2,3.4-3.3-0.2-7.8
		C90.1,83.2,89,82.4,87.9,82.3C87.9,82.3,87.9,82.3,87.9,82.3z"/>
</g>
<g>
	<g>
		<path class="st2" d="M27.7,131.8H31l-4.9-8.5c-0.4-0.7-1.3-0.9-2-0.5c-0.7,0.4-0.9,1.3-0.5,2L27.7,131.8z"/>
		<path class="st2" d="M16.4,124.7c0.4-0.7,0.2-1.6-0.5-2c-0.7-0.4-1.6-0.2-2,0.5L9,131.8h3.3L16.4,124.7z"/>
		<path class="st2" d="M36.6,134.4H3.4c-1.4,0-2.4,1.1-2.4,2.4v2.7c0,1.4,1.1,2.4,2.4,2.4h0.8l2.4,12.8c0.3,1.5,1.7,2.7,3.1,2.7h0.9
			h6.2c0.6,0,1.4,0,2.3,0l0,0h0.8h0.8l0,0c0.8,0,1.7,0,2.3,0H29h0.9c1.4,0,2.8-1.2,3.1-2.7l2.4-12.8h1.2c1.4,0,2.4-1.1,2.4-2.4v-2.7
			C39,135.4,37.9,134.4,36.6,134.4z M14.5,147.1v5.5c0,0.8-0.6,1.4-1.4,1.4s-1.4-0.6-1.4-1.4v-2.3v-5.4c0-0.8,0.6-1.4,1.4-1.4
			s1.4,0.6,1.4,1.4V147.1z M18.9,147.1v5.5c0,0.8-0.6,1.4-1.4,1.4s-1.4-0.6-1.4-1.4v-2.3v-5.4c0-0.8,0.6-1.4,1.4-1.4
			s1.4,0.6,1.4,1.4V147.1z M23.3,150.3v2.3c0,0.8-0.6,1.4-1.4,1.4s-1.4-0.6-1.4-1.4v-5.5v-2.2c0-0.8,0.6-1.4,1.4-1.4
			s1.4,0.6,1.4,1.4V150.3z M27.8,150.3v2.3c0,0.8-0.6,1.4-1.4,1.4c-0.8,0-1.4-0.6-1.4-1.4v-5.5v-2.2c0-0.8,0.6-1.4,1.4-1.4
			c0.8,0,1.4,0.6,1.4,1.4V150.3z"/>
	</g>
</g>
<g>
	<path class="st2" d="M75.2,149.5H52.4c-0.9,0-1.7-0.7-1.9-1.6L47,124.8h-4.1c-1.1,0-1.9-0.8-1.9-1.9l0,0c0-1.1,0.8-1.9,1.9-1.9h5.7
		c0.9,0,1.7,0.7,1.9,1.6l1.2,7.9h25.4c1.1,0,2.1,1,1.9,2.1l-1.9,15.2C76.9,148.8,76.2,149.5,75.2,149.5z"/>
	<path class="st2" d="M71.4,151.4c-1.4,0-2.6,0.8-3.3,1.9H55.7c-0.7-1.1-1.9-1.9-3.3-1.9c-2.1,0-3.8,1.7-3.8,3.8s1.7,3.8,3.8,3.8
		c1.4,0,2.6-0.8,3.3-1.9h12.5c0.7,1.1,1.9,1.9,3.3,1.9c2.1,0,3.8-1.7,3.8-3.8S73.5,151.4,71.4,151.4z"/>
</g>
<g>
	<path class="st2" d="M115.2,149.5H92.4c-0.9,0-1.7-0.7-1.9-1.6l-3-19.3h-4c-1.1,0-1.9-0.8-1.9-1.9l0,0c0-1.1,0.8-1.9,1.9-1.9h5.7
		c0.9,0,1.7,0.7,1.9,1.6l1.5,9.8h23.8c1.1,0,2.1,1,1.9,2.1l-1.2,9.5C117,148.8,116.1,149.5,115.2,149.5z"/>
	<path class="st2" d="M111.4,151.4c-1.4,0-2.6,0.8-3.3,1.9H95.7c-0.7-1.1-1.9-1.9-3.3-1.9c-2.1,0-3.8,1.7-3.8,3.8
		c0,2.1,1.7,3.8,3.8,3.8c1.4,0,2.6-0.8,3.3-1.9h12.5c0.7,1.1,1.9,1.9,3.3,1.9c2.1,0,3.8-1.7,3.8-3.8
		C115.2,153.1,113.5,151.4,111.4,151.4z"/>
	<polygon class="st2" points="115.2,124.8 111.4,124.8 111.4,121 107.6,121 107.6,124.8 103.8,124.8 103.8,128.6 107.6,128.6 
		107.6,132.4 111.4,132.4 111.4,128.6 115.2,128.6 	"/>
</g>
<path class="st1" d="M81,41v38h38V41H81z M111.5,62.1c0.9,0.9,1.9,1.8,2.8,2.8c0.6,0.7,1.2,1.4,1.7,2.3c0.7,1,0.2,2-1,2.1
	c-0.8,0.1-4.5,0-4.6,0c-1,0-1.9-0.4-2.6-1.1c-0.8-0.8-1.5-1.6-2.3-2.4c-0.2-0.2-0.5-0.5-0.8-0.7c-0.6-0.5-1.2-0.4-1.5,0.4
	c-0.2,0.6-0.5,2.3-0.5,2.4c-0.1,0.8-0.5,1.2-1.4,1.2c-2.4,0.2-4.6-0.2-6.8-1.3c-1.8-1-3.3-2.4-4.5-4c-2-2.5-3.6-5.3-4.9-8.1
	c-0.1-0.2-1.5-3.2-1.5-3.3c-0.2-0.5,0-1,0.4-1.1c0.2-0.1,5,0,5.1,0c0.8,0.1,1.3,0.4,1.6,1.1c0.9,2.3,2.1,4.3,3.6,6.3
	c0.2,0.2,0.5,0.5,0.8,0.7c0.4,0.3,0.8,0.2,0.9-0.3c0.2-0.5,0.3-1.4,0.3-1.9c0-1.3,0-2.1-0.1-3.4c-0.1-0.8-0.3-1.5-1.5-1.7
	c-0.4-0.1-0.4-0.4-0.2-0.7c0.5-0.6,1.2-0.8,2-0.8c1.2-0.1,2.4,0,3.6,0c0.5,0,1,0.1,1.5,0.2c0.6,0.2,1,0.6,1.1,1.2
	c0.1,0.3,0.1,0.7,0.1,1c0,1.4-0.1,2.8-0.2,4.2c0,0.5,0,1.1,0.2,1.7c0.2,0.8,0.7,0.9,1.2,0.4c0.7-0.7,1.2-1.4,1.8-2.3
	c1-1.4,1.7-3,2.4-4.6c0.3-0.8,0.6-1,1.4-1c1.7,0,3.3,0,5.1,0c0.3,0,0.6,0,0.9,0.2c0.5,0.2,0.6,0.5,0.5,1c-0.2,1.1-0.8,2.1-1.5,3
	c-1.1,1.4-2.1,2.9-3.2,4.3c-0.2,0.2-0.2,0.4-0.4,0.6C110.9,61.1,110.9,61.5,111.5,62.1z"/>
<g>
	<path class="st1" d="M140,49c-6.1,0-11,4.9-11,11c0,2.1,0.6,4.2,1.7,5.9l0.3,0.5l-1.1,3.8l4-1l0.4,0.2C136,70.5,138,71,140,71
		c6.1,0,11-4.9,11-11S146.1,49,140,49z M146.8,63.3l-0.2,0.6c-0.2,0.8-0.6,1.4-1.2,1.7c-0.8,0.5-1.8,0.8-3.1,0.4
		c-4-1.1-6.3-3.8-7.5-5.5c-1.2-1.7-1.7-3.3-1.4-4.7c0.2-0.9,0.8-1.6,1.3-2c0.2-0.2,0.5-0.3,0.8-0.2l0.8,0.1c0.2,0,0.3,0.1,0.4,0.3
		l1.3,3c0.1,0.2,0.1,0.3-0.1,0.5l-1.1,1.3c-0.1,0.1-0.1,0.2-0.1,0.4c1.4,2.7,4,3.9,4.9,4.2c0.2,0.1,0.3,0,0.4-0.1l1.1-1.4
		c0.2-0.2,0.4-0.2,0.5-0.2l2.9,1.4C146.7,63,146.8,63.1,146.8,63.3z"/>
	<path class="st1" d="M121,41v38h38V41H121z M140,73.2c-2.3,0-4.5-0.6-6.5-1.7l-6.8,1.7l1.8-6.6c-1.2-2.1-1.8-4.3-1.8-6.7
		c0-7.3,5.9-13.3,13.3-13.3s13.3,5.9,13.3,13.3S147.4,73.2,140,73.2z"/>
</g>
</svg>
