<?xml version="1.0" encoding="utf-8"?>
<!-- Generator: Adobe Illustrator 21.0.0, SVG Export Plug-In . SVG Version: 6.00 Build 0)  -->
<svg version="1.1" id="Слой_1" xmlns="http://www.w3.org/2000/svg" xmlns:xlink="http://www.w3.org/1999/xlink" x="0px" y="0px"
	 viewBox="0 0 40 40" style="enable-background:new 0 0 40 40;" xml:space="preserve">
<style type="text/css">
	.st0{fill:#FFFFFF;}
</style>
<g>
	<path class="st0" d="M31.3,38.9c-1.6,0-3.5-0.4-5.6-1.2c-4.6-1.7-9.5-5.1-14.1-9.6c-4.4-4.5-7.9-9.5-9.5-14c-1.6-4.2-1.6-7.6,0-9.2
		c0.2-0.2,0.5-0.5,0.7-0.7C4.2,2.7,5.8,1,8,1.1c1.4,0.1,2.9,1,4.4,2.8c4.3,5.4,2.3,7.3,0.2,9.5l-0.4,0.4c-0.4,0.4-1.1,2,5.5,8.6
		c2.1,2.1,3.9,3.6,5.4,4.6c0.9,0.6,2.5,1.5,3.2,0.8l0.4-0.4c2.2-2.3,4.2-4.2,9.5,0.2C38,29,38.9,30.5,39,32c0.1,2.1-1.6,3.8-3.1,5.2
		c-0.2,0.2-0.5,0.5-0.7,0.7C34.1,38.5,32.9,38.9,31.3,38.9z M7.8,2.3C6.3,2.3,4.9,3.7,3.7,5C3.5,5.2,3.2,5.5,2.9,5.8
		C1.8,6.9,1.8,10,3.2,13.6c1.7,4.4,5,9.2,9.3,13.6c4.3,4.3,9.2,7.6,13.6,9.3c3.6,1.4,6.7,1.4,7.8,0.3c0.2-0.2,0.5-0.5,0.8-0.7
		c1.3-1.2,2.8-2.7,2.7-4.2c-0.1-1.1-0.8-2.2-2.3-3.4c-4.5-3.6-5.8-2.3-7.8-0.2l-0.4,0.4c-1,1-2.6,0.8-4.8-0.7
		c-1.5-1-3.4-2.6-5.6-4.8c-5.4-5.4-7.1-8.7-5.5-10.4l0.4-0.4c2.1-2,3.4-3.3-0.2-7.8C10,3.2,8.9,2.4,7.8,2.3L7.8,2.3z"/>
</g>
</svg>
