<?xml version="1.0" encoding="utf-8"?>
<!-- Generator: Adobe Illustrator 21.0.0, SVG Export Plug-In . SVG Version: 6.00 Build 0)  -->
<svg version="1.1" id="Capa_1" xmlns="http://www.w3.org/2000/svg" xmlns:xlink="http://www.w3.org/1999/xlink" x="0px" y="0px"
	 viewBox="0 0 70 30" style="enable-background:new 0 0 70 30;" xml:space="preserve">
<style type="text/css">
	.st0{fill:#FFFFFF;}
</style>
<g>
	<path id="Chevron_Right" class="st0" d="M5.3,15.7l9,9c0.4,0.4,1,0.4,1.4,0c0.4-0.4,0.4-1,0-1.4L7.4,15l8.3-8.3
		c0.4-0.4,0.4-1,0-1.4c-0.4-0.4-1-0.4-1.4,0l-9,9C4.9,14.7,4.9,15.3,5.3,15.7z"/>
</g>
<g>
	<path id="Chevron_Right_1_" class="st0" d="M64.7,14.3l-9-9c-0.4-0.4-1-0.4-1.4,0c-0.4,0.4-0.4,1,0,1.4l8.3,8.3l-8.3,8.3
		c-0.4,0.4-0.4,1,0,1.4c0.4,0.4,1,0.4,1.4,0l9-9C65.1,15.3,65.1,14.7,64.7,14.3z"/>
</g>
</svg>
